{
  "asset": {
    "version": "2.0",
    "generator": "Sketchup glTF Exporter by Evan Prananta.",
    "copyright": "A shell of an empacher single. (for some reason none of the photos work with any of my models). #boat #carbon #carbon_fibre #Empacher #fibre #janousek #oar #racing #rowing #rowing_boat #scull #sculling #shell #single #sweep"
  },
  "scene": 0,
  "scenes": [
    {
      "nodes": [
        0
      ]
    }
  ],
  "samplers": [
    {
    }
  ],
  "nodes": [
    {
      "name": "root",
      "mesh": 0
    }
  ],
  "materials": [
    {
      "pbrMetallicRoughness": {
        "baseColorFactor": [
          0.6121,
          0.6121,
          0.6121,
          1.0
        ],
        "metallicFactor": 0.1,
        "roughnessFactor": 0.5
      },
      "name": "default material",
      "doubleSided": true
    },
    {
      "pbrMetallicRoughness": {
        "baseColorFactor": [
          0.009,
          0.009,
          0.009,
          1.0
        ],
        "metallicFactor": 0.1,
        "roughnessFactor": 0.9
      },
      "name": "Color_008",
      "doubleSided": true
    },
    {
      "pbrMetallicRoughness": {
        "baseColorTexture": {
          "index": 0
        },
        "metallicFactor": 0.1,
        "roughnessFactor": 0.9
      },
      "name": "Carbon_Fibre",
      "doubleSided": true,
      "alphaMode": "OPAQUE"
    },
    {
      "pbrMetallicRoughness": {
        "baseColorTexture": {
          "index": 1
        },
        "metallicFactor": 0.1,
        "roughnessFactor": 0.9
      },
      "name": "Formica moucheté de gris",
      "doubleSided": true,
      "alphaMode": "OPAQUE"
    },
    {
      "pbrMetallicRoughness": {
        "baseColorTexture": {
          "index": 2
        },
        "metallicFactor": 0.1,
        "roughnessFactor": 0.9
      },
      "name": "Métal argenté",
      "doubleSided": true,
      "alphaMode": "OPAQUE"
    },
    {
      "pbrMetallicRoughness": {
        "baseColorTexture": {
          "index": 3
        },
        "metallicFactor": 0.1,
        "roughnessFactor": 0.9
      },
      "name": "Wood_Cherry_Original",
      "doubleSided": true,
      "alphaMode": "OPAQUE"
    },
    {
      "pbrMetallicRoughness": {
        "baseColorTexture": {
          "index": 4
        },
        "metallicFactor": 0.1,
        "roughnessFactor": 0.9
      },
      "name": "Placage en bois 02",
      "doubleSided": true,
      "alphaMode": "OPAQUE"
    },
    {
      "pbrMetallicRoughness": {
        "baseColorTexture": {
          "index": 5
        },
        "metallicFactor": 0.75,
        "roughnessFactor": 0.4
      },
      "name": "Métal en aluminium anodisé",
      "doubleSided": true,
      "alphaMode": "OPAQUE"
    },
    {
      "pbrMetallicRoughness": {
        "baseColorFactor": [
          0.2801,
          0.2801,
          0.2801,
          1.0
        ],
        "metallicFactor": 0.1,
        "roughnessFactor": 0.9
      },
      "name": "Matière3",
      "doubleSided": true
    },
    {
      "pbrMetallicRoughness": {
        "baseColorTexture": {
          "index": 6
        },
        "metallicFactor": 0.1,
        "roughnessFactor": 0.9
      },
      "name": "Placage en bois 01",
      "doubleSided": true,
      "alphaMode": "OPAQUE"
    }
  ],
  "images": [
    {
      "bufferView": 0,
      "mimeType": "image/png"
    },
    {
      "bufferView": 1,
      "mimeType": "image/png"
    },
    {
      "bufferView": 2,
      "mimeType": "image/png"
    },
    {
      "bufferView": 3,
      "mimeType": "image/png"
    },
    {
      "bufferView": 4,
      "mimeType": "image/png"
    },
    {
      "bufferView": 5,
      "mimeType": "image/png"
    },
    {
      "bufferView": 6,
      "mimeType": "image/png"
    }
  ],
  "textures": [
    {
      "source": 0,
      "sampler": 0
    },
    {
      "source": 1,
      "sampler": 0
    },
    {
      "source": 2,
      "sampler": 0
    },
    {
      "source": 3,
      "sampler": 0
    },
    {
      "source": 4,
      "sampler": 0
    },
    {
      "source": 5,
      "sampler": 0
    },
    {
      "source": 6,
      "sampler": 0
    }
  ],
  "meshes": [
    {
      "primitives": [
        {
          "attributes": {
            "POSITION": 0,
            "NORMAL": 1
          },
          "indices": 5,
          "mode": 4,
          "material": 0
        },
        {
          "attributes": {
            "POSITION": 0,
            "NORMAL": 1
          },
          "indices": 6,
          "mode": 4,
          "material": 1
        },
        {
          "attributes": {
            "POSITION": 2,
            "NORMAL": 3,
            "TEXCOORD_0": 4
          },
          "indices": 7,
          "mode": 4,
          "material": 2
        },
        {
          "attributes": {
            "POSITION": 2,
            "NORMAL": 3,
            "TEXCOORD_0": 4
          },
          "indices": 8,
          "mode": 4,
          "material": 3
        },
        {
          "attributes": {
            "POSITION": 2,
            "NORMAL": 3,
            "TEXCOORD_0": 4
          },
          "indices": 9,
          "mode": 4,
          "material": 4
        },
        {
          "attributes": {
            "POSITION": 2,
            "NORMAL": 3,
            "TEXCOORD_0": 4
          },
          "indices": 10,
          "mode": 4,
          "material": 5
        },
        {
          "attributes": {
            "POSITION": 2,
            "NORMAL": 3,
            "TEXCOORD_0": 4
          },
          "indices": 11,
          "mode": 4,
          "material": 6
        },
        {
          "attributes": {
            "POSITION": 2,
            "NORMAL": 3,
            "TEXCOORD_0": 4
          },
          "indices": 12,
          "mode": 4,
          "material": 7
        },
        {
          "attributes": {
            "POSITION": 0,
            "NORMAL": 1
          },
          "indices": 13,
          "mode": 4,
          "material": 8
        },
        {
          "attributes": {
            "POSITION": 2,
            "NORMAL": 3,
            "TEXCOORD_0": 4
          },
          "indices": 14,
          "mode": 4,
          "material": 9
        }
      ]
    }
  ],
  "accessors": [
    {
      "bufferView": 7,
      "componentType": 5126,
      "count": 1783,
      "type": "VEC3",
      "min": [
        -0.8486205814167977,
        0.12841533031936236,
        -4.485945858267867
      ],
      "max": [
        0.6846230738250797,
        0.41510064932002516,
        0.11511960261670824
      ]
    },
    {
      "bufferView": 8,
      "componentType": 5126,
      "count": 1783,
      "type": "VEC3"
    },
    {
      "bufferView": 9,
      "componentType": 5126,
      "count": 19134,
      "type": "VEC3",
      "min": [
        -0.8640927756344556,
        0.11556701480972498,
        -4.4572755449164925
      ],
      "max": [
        0.7077721425822523,
        0.34933888528972035,
        2.4007244550834668
      ]
    },
    {
      "bufferView": 10,
      "componentType": 5126,
      "count": 19134,
      "type": "VEC3"
    },
    {
      "bufferView": 11,
      "componentType": 5126,
      "count": 19134,
      "type": "VEC2"
    },
    {
      "bufferView": 12,
      "componentType": 5123,
      "count": 2619,
      "type": "SCALAR"
    },
    {
      "bufferView": 12,
      "componentType": 5123,
      "count": 2496,
      "type": "SCALAR",
      "byteOffset": 5238
    },
    {
      "bufferView": 13,
      "componentType": 5123,
      "count": 2493,
      "type": "SCALAR"
    },
    {
      "bufferView": 13,
      "componentType": 5123,
      "count": 807,
      "type": "SCALAR",
      "byteOffset": 4986
    },
    {
      "bufferView": 13,
      "componentType": 5123,
      "count": 5634,
      "type": "SCALAR",
      "byteOffset": 6600
    },
    {
      "bufferView": 13,
      "componentType": 5123,
      "count": 15,
      "type": "SCALAR",
      "byteOffset": 17868
    },
    {
      "bufferView": 13,
      "componentType": 5123,
      "count": 27048,
      "type": "SCALAR",
      "byteOffset": 17898
    },
    {
      "bufferView": 13,
      "componentType": 5123,
      "count": 213,
      "type": "SCALAR",
      "byteOffset": 71994
    },
    {
      "bufferView": 12,
      "componentType": 5123,
      "count": 156,
      "type": "SCALAR",
      "byteOffset": 10230
    },
    {
      "bufferView": 13,
      "componentType": 5123,
      "count": 336,
      "type": "SCALAR",
      "byteOffset": 72420
    }
  ],
  "bufferViews": [
    {
      "buffer": 0,
      "byteLength": 403004
    },
    {
      "buffer": 0,
      "byteOffset": 403004,
      "byteLength": 274980
    },
    {
      "buffer": 0,
      "byteOffset": 677984,
      "byteLength": 116989
    },
    {
      "buffer": 0,
      "byteOffset": 794973,
      "byteLength": 63060
    },
    {
      "buffer": 0,
      "byteOffset": 858033,
      "byteLength": 214100
    },
    {
      "buffer": 0,
      "byteOffset": 1072133,
      "byteLength": 19973
    },
    {
      "buffer": 0,
      "byteOffset": 1092106,
      "byteLength": 251685
    },
    {
      "buffer": 0,
      "byteOffset": 1343796,
      "byteLength": 21396,
      "target": 34962,
      "byteStride": 12
    },
    {
      "buffer": 0,
      "byteOffset": 1365192,
      "byteLength": 21396,
      "target": 34962,
      "byteStride": 12
    },
    {
      "buffer": 0,
      "byteOffset": 1386588,
      "byteLength": 229608,
      "target": 34962,
      "byteStride": 12
    },
    {
      "buffer": 0,
      "byteOffset": 1616196,
      "byteLength": 229608,
      "target": 34962,
      "byteStride": 12
    },
    {
      "buffer": 0,
      "byteOffset": 1845808,
      "byteLength": 153072,
      "target": 34962,
      "byteStride": 8
    },
    {
      "buffer": 0,
      "byteOffset": 1998880,
      "byteLength": 10542,
      "target": 34963
    },
    {
      "buffer": 0,
      "byteOffset": 2009422,
      "byteLength": 73092,
      "target": 34963
    }
  ],
  "buffers": [
    {
      "uri": "data:application/octet-stream;base64,",
      "byteLength": 2082514
    }
  ]
}